<?xml version="1.0" standalone="no"?>
<!DOCTYPE svg PUBLIC "-//W3C//DTD SVG 20010904//EN"
 "http://www.w3.org/TR/2001/REC-SVG-20010904/DTD/svg10.dtd">
<svg version="1.0" xmlns="http://www.w3.org/2000/svg"
 width="1185.000000pt" height="483.000000pt" viewBox="0 0 1185.000000 483.000000"
 preserveAspectRatio="xMidYMid meet">
<metadata>
Created by potrace 1.15, written by Peter Selinger 2001-2017
</metadata>
<g transform="translate(0.000000,483.000000) scale(0.100000,-0.100000)"
fill="#000000" stroke="none">
<path d="M2067 3778 c-48 -13 -132 -93 -141 -135 -9 -41 -21 -49 -79 -56 -26
-2 -56 -12 -66 -21 -17 -16 -21 -15 -56 5 -29 18 -52 22 -111 22 -63 -1 -80
-5 -118 -29 -48 -31 -56 -45 -56 -114 0 -25 -3 -75 -7 -112 l-6 -68 -209 0
-210 0 -38 -27 c-73 -52 -70 -20 -70 -848 0 -834 -3 -799 73 -848 l41 -27 208
0 208 0 0 -73 0 -73 108 -17 c260 -42 734 -48 927 -13 249 46 424 142 519 284
119 180 137 446 41 638 -41 85 -102 144 -199 195 l-66 35 46 35 c66 49 130
139 154 216 40 130 21 316 -45 429 -56 97 -218 224 -284 224 -17 0 -21 6 -21
33 -1 65 -99 157 -168 157 -29 0 -34 5 -56 53 -52 117 -180 172 -319 135z
m229 -703 c146 -28 208 -91 208 -209 -1 -169 -120 -226 -476 -226 l-138 0 0
219 0 220 28 4 c72 11 306 6 378 -8z m-866 -675 l0 -650 -130 0 -130 0 0 650
0 650 130 0 130 0 0 -650z m923 -155 c169 -36 250 -130 233 -273 -21 -176
-154 -242 -489 -242 -89 0 -172 3 -184 6 l-23 6 0 259 0 259 198 0 c132 0 219
-5 265 -15z"/>
<path d="M8850 2410 l0 -1060 245 0 245 0 0 1060 0 1060 -245 0 -245 0 0
-1060z"/>
<path d="M9972 3393 l-213 -36 4 -776 c3 -864 2 -846 73 -989 62 -128 175
-215 329 -257 82 -23 301 -31 406 -15 46 6 126 25 177 42 85 27 93 32 89 51
-3 12 -18 92 -33 177 -15 85 -31 159 -35 164 -4 5 -44 -2 -91 -15 -61 -17
-110 -23 -188 -23 -94 -1 -110 2 -149 24 -52 29 -85 85 -101 169 -5 29 -10
188 -10 352 l0 299 270 0 270 0 0 200 0 200 -270 0 -270 0 0 235 0 235 -22 -1
c-13 -1 -119 -17 -236 -36z"/>
<path d="M5205 2985 c-237 -52 -411 -188 -522 -410 -133 -262 -120 -675 28
-921 53 -88 182 -203 281 -252 159 -78 211 -87 473 -87 200 1 244 4 333 23
148 32 212 58 212 85 0 29 -56 356 -61 362 -3 2 -39 -7 -80 -20 -89 -28 -261
-55 -350 -55 -203 0 -363 78 -420 203 -38 84 -83 77 490 77 l509 0 7 105 c14
195 -26 424 -96 555 -95 178 -258 296 -467 336 -91 17 -257 17 -337 -1z m290
-403 c78 -40 135 -124 151 -220 l7 -42 -288 0 -287 0 7 38 c21 119 104 215
210 243 51 14 157 4 200 -19z"/>
<path d="M3875 2983 c-92 -12 -215 -38 -328 -70 l-127 -36 2 -766 3 -766 230
0 230 0 3 612 2 612 48 8 c88 15 261 8 361 -16 51 -12 95 -20 96 -19 8 8 76
371 72 382 -13 33 -232 66 -422 64 -77 0 -153 -3 -170 -5z"/>
<path d="M6260 2943 c0 -24 125 -445 224 -753 90 -280 172 -516 251 -717 l48
-123 187 0 187 0 56 178 c63 200 160 525 184 620 8 34 19 62 22 62 4 0 13 -24
20 -52 21 -80 90 -307 176 -570 l77 -238 186 0 187 0 74 188 c121 309 451
1335 451 1403 0 19 -11 19 -242 17 l-242 -3 -33 -145 c-74 -331 -188 -785
-209 -840 -4 -9 -16 19 -30 65 -26 89 -182 713 -211 843 l-18 82 -172 0 -172
0 -10 -37 c-5 -21 -37 -148 -71 -283 -92 -369 -190 -722 -190 -688 0 3 -29
119 -64 259 -35 140 -87 358 -116 484 -28 127 -54 238 -56 248 -5 16 -26 17
-250 17 -222 0 -244 -1 -244 -17z"/>
</g>
</svg>
