<?xml version="1.0" standalone="no"?>
<!DOCTYPE svg PUBLIC "-//W3C//DTD SVG 20010904//EN"
 "http://www.w3.org/TR/2001/REC-SVG-20010904/DTD/svg10.dtd">
<svg version="1.0" xmlns="http://www.w3.org/2000/svg"
 width="2027.000000pt" height="910.000000pt" viewBox="0 0 2027.000000 910.000000"
 preserveAspectRatio="xMidYMid meet">
<metadata>
Created by potrace 1.15, written by Peter Selinger 2001-2017
</metadata>
<g transform="translate(0.000000,910.000000) scale(0.100000,-0.100000)"
fill="#000000" stroke="none">
<path d="M2970 9024 c-142 -31 -278 -92 -391 -175 -37 -27 -71 -49 -76 -49 -5
0 -33 -26 -63 -57 -30 -31 -46 -50 -36 -42 16 11 16 8 -4 -18 -13 -18 -28 -29
-33 -26 -6 3 -7 2 -4 -4 8 -12 -49 -98 -65 -98 -6 0 -13 -7 -15 -15 -4 -13 -3
-13 6 0 8 11 11 11 11 2 0 -17 -7 -19 -125 -36 -108 -17 -115 -18 -190 -39
-107 -31 -378 -171 -400 -207 -4 -6 -11 -10 -17 -10 -6 0 -5 7 3 18 13 15 12
16 -4 3 -9 -8 -15 -16 -12 -19 7 -7 -45 -62 -58 -62 -5 0 -3 8 4 18 13 15 12
16 -3 3 -10 -7 -17 -16 -15 -20 1 -3 -13 -22 -32 -41 -19 -19 -28 -26 -21 -15
8 11 -3 4 -23 -14 -20 -19 -37 -37 -37 -40 0 -2 11 6 25 19 14 13 25 19 25 14
0 -6 -14 -23 -31 -40 -43 -41 -141 -190 -182 -276 -53 -112 -95 -255 -109
-372 -7 -58 -16 -106 -20 -106 -11 0 -10 -128 1 -132 4 -1 11 -34 15 -73 16
-185 95 -397 215 -580 60 -92 226 -258 321 -322 223 -150 446 -220 711 -224
108 -1 151 2 244 16 98 15 261 73 360 128 l79 44 72 -39 c169 -91 376 -144
576 -147 68 -1 148 3 178 8 39 6 57 6 62 -3 6 -8 8 -8 8 1 0 7 17 15 38 18
103 18 288 91 396 157 48 29 51 30 75 14 62 -40 189 -99 269 -126 141 -46 235
-62 392 -66 248 -5 459 50 672 174 l58 33 68 -40 c127 -74 274 -128 421 -156
109 -20 333 -20 442 0 209 39 408 131 579 268 24 20 47 34 50 32 4 -2 33 24
66 57 32 34 50 55 39 47 -11 -8 -4 4 14 26 19 22 38 39 43 38 4 -2 5 3 2 11
-5 13 24 44 35 38 3 -2 17 13 29 33 13 21 19 34 13 31 -16 -11 -15 -6 33 88
94 183 138 371 137 580 0 247 -64 473 -189 670 -14 23 -25 46 -25 53 0 7 -4
10 -9 7 -8 -5 -12 11 -8 31 1 6 -2 7 -6 3 -8 -9 -34 10 -34 24 0 6 8 4 18 -3
14 -11 14 -10 -2 8 -10 13 -22 20 -27 17 -9 -5 -55 54 -52 66 1 4 -16 25 -39
46 -23 21 -37 33 -33 25 5 -9 3 -12 -6 -9 -7 2 -21 18 -30 34 -9 16 -22 28
-29 26 -17 -4 -41 18 -33 31 3 6 1 7 -5 3 -13 -8 -94 43 -87 55 3 4 0 11 -6
15 -8 4 -9 3 -5 -4 12 -19 -5 -14 -67 22 -31 18 -54 36 -50 41 5 4 2 5 -5 1
-7 -4 -47 6 -90 22 -151 58 -250 75 -432 76 -225 1 -361 -27 -549 -115 -46
-21 -88 -36 -94 -32 -5 3 -7 1 -3 -5 6 -10 -51 -52 -73 -52 -6 0 -50 22 -97
49 -94 54 -207 99 -322 126 -73 18 -74 19 -114 79 -86 127 -267 285 -413 358
-78 40 -216 86 -312 104 -65 12 -125 15 -237 11 -192 -5 -302 -32 -468 -115
l-118 -59 -72 44 c-86 50 -205 95 -311 117 -94 20 -297 20 -387 0z m391 -396
c85 -31 147 -68 210 -123 27 -25 64 -52 82 -62 42 -22 123 -23 166 -1 18 10
37 16 41 13 4 -3 14 3 21 13 13 16 12 16 -6 3 -11 -7 -2 3 20 23 21 20 45 34
52 32 7 -3 12 0 10 6 -4 18 143 86 234 108 252 59 508 -13 694 -195 70 -69
172 -216 161 -233 -3 -5 14 -26 37 -48 23 -21 33 -28 22 -15 l-20 24 32 -17
c18 -9 67 -21 109 -27 98 -13 191 -42 279 -86 63 -32 172 -104 185 -124 11
-16 96 -49 125 -49 45 0 92 16 124 42 15 13 38 30 51 38 12 8 32 23 43 34 67
56 271 135 367 141 30 2 63 7 72 10 10 4 41 4 70 1 29 -3 69 -5 88 -5 52 -1
177 -35 256 -71 91 -41 165 -90 157 -103 -3 -6 -1 -7 5 -3 13 8 64 -33 56 -45
-3 -5 1 -6 8 -4 16 7 68 -45 73 -71 1 -11 7 -18 13 -17 6 1 22 -13 36 -32 28
-37 33 -50 14 -39 -8 4 -10 3 -5 -2 5 -5 14 -9 20 -9 7 0 11 -8 11 -18 -1 -9
2 -15 6 -12 12 7 76 -132 100 -216 27 -94 37 -279 21 -375 -13 -74 -52 -194
-84 -259 -31 -63 -97 -156 -106 -150 -5 2 -15 -3 -22 -13 -13 -15 -12 -16 4
-3 33 26 17 -5 -20 -40 -34 -31 -36 -31 -13 -4 23 27 21 27 -13 -4 -20 -19
-37 -40 -37 -47 0 -13 -126 -101 -198 -138 -65 -33 -220 -78 -249 -73 -13 2
-23 0 -23 -6 0 -15 -255 -1 -330 18 -126 34 -340 149 -340 184 0 8 -3 11 -6 8
-4 -4 -19 2 -33 12 -44 32 -105 43 -153 30 -38 -10 -93 -41 -108 -59 -23 -30
-203 -133 -214 -123 -3 3 -6 2 -6 -4 0 -12 -110 -47 -194 -62 -74 -14 -253
-14 -261 -1 -3 5 -12 7 -20 4 -18 -7 -148 29 -222 61 -74 33 -154 85 -148 95
3 5 0 12 -6 16 -8 4 -9 3 -5 -4 4 -7 3 -12 -2 -12 -12 0 -33 25 -27 32 3 3 -5
13 -17 24 -18 15 -20 16 -9 2 18 -24 6 -23 -28 3 -15 11 -45 24 -67 29 -65 15
-118 -4 -213 -75 -163 -123 -299 -173 -496 -182 -198 -9 -366 36 -525 143 -45
30 -95 61 -111 69 -40 21 -117 19 -164 -5 -46 -23 -49 -24 -39 -8 4 7 3 8 -5
4 -6 -4 -9 -11 -6 -16 7 -12 -52 -53 -65 -45 -5 3 -10 0 -10 -8 0 -28 -243
-129 -270 -112 -5 3 -10 1 -10 -5 0 -6 -12 -11 -27 -9 -16 1 -36 -2 -46 -6
-39 -16 -258 2 -352 30 -106 31 -231 95 -287 147 -22 20 -46 39 -53 42 -33 12
-158 176 -200 261 -48 98 -90 234 -82 271 2 13 0 24 -4 24 -5 0 -9 47 -9 105
0 67 4 105 11 105 5 0 7 5 4 10 -9 14 5 101 15 95 5 -3 12 0 16 6 4 8 3 9 -4
5 -19 -12 -14 19 15 91 71 179 179 312 347 425 134 92 287 138 476 143 95 3
123 8 162 27 42 21 50 31 84 105 26 55 41 78 47 70 6 -8 7 -6 3 6 -7 22 22 69
37 60 6 -3 7 -1 3 5 -4 7 9 28 31 50 25 25 30 28 13 7 -24 -28 -23 -28 13 4
20 19 37 41 37 48 0 7 4 13 9 13 5 0 16 6 23 13 41 37 121 76 201 98 100 27
255 21 348 -13z"/>
<path d="M4359 5948 c-87 -67 -200 -137 -213 -132 -7 3 -19 -2 -26 -11 -7 -8
-18 -15 -26 -15 -7 0 -20 -7 -28 -16 -9 -8 -39 -19 -68 -23 -29 -5 -54 -14
-56 -20 -5 -14 -29 -14 -34 0 -3 8 -10 5 -21 -6 -13 -12 -27 -16 -47 -11 -17
3 -30 1 -30 -4 0 -6 -7 -10 -16 -10 -8 0 -13 4 -10 8 2 4 -34 4 -82 -1 -99 -9
-243 5 -301 29 -20 9 -72 27 -116 41 -108 34 -169 66 -225 119 -26 24 -50 44
-54 44 -4 0 -29 -18 -55 -40 -112 -95 -402 -210 -493 -196 -23 4 -38 2 -38 -4
0 -6 -29 -10 -70 -10 -39 0 -70 4 -70 10 0 5 -13 7 -29 4 -41 -8 -183 22 -281
61 l-85 34 -265 1 c-146 0 -301 -4 -344 -9 -44 -6 -82 -8 -85 -6 -2 3 -9 1
-16 -5 -6 -5 -35 -12 -65 -15 -29 -3 -58 -9 -64 -13 -6 -5 -47 -21 -91 -37
-44 -15 -106 -40 -137 -56 -32 -16 -61 -29 -65 -28 -20 3 -47 -3 -35 -8 8 -3
-17 -25 -60 -53 -39 -27 -76 -46 -82 -43 -5 3 -6 1 -2 -5 6 -11 -31 -38 -46
-34 -5 1 -7 -2 -5 -7 3 -10 -98 -102 -105 -95 -3 2 -11 -2 -18 -11 -7 -8 -9
-15 -6 -15 4 0 -2 -13 -14 -30 -12 -16 -27 -30 -34 -30 -7 0 -21 -10 -32 -22
l-19 -23 24 20 c27 22 22 9 -17 -42 -13 -18 -28 -31 -32 -28 -4 3 -14 -3 -21
-13 -13 -15 -12 -16 3 -3 11 8 18 9 18 3 0 -6 -9 -17 -20 -25 -11 -8 -17 -16
-15 -19 3 -3 -10 -32 -28 -64 -19 -33 -45 -84 -58 -114 -13 -30 -25 -57 -28
-60 -4 -3 -7 -14 -9 -25 -2 -11 -10 -33 -18 -49 -8 -17 -17 -44 -19 -60 -3
-17 -10 -51 -15 -76 -39 -182 -40 -202 -40 -1370 0 -959 2 -1146 15 -1233 52
-350 172 -595 404 -828 241 -241 515 -371 868 -410 146 -17 603 -23 603 -8 0
8 4 8 15 -1 8 -7 15 -19 15 -26 0 -25 69 -186 105 -247 38 -64 41 -72 23 -61
-8 4 -10 3 -5 -2 5 -5 14 -9 20 -9 7 0 11 -9 10 -18 0 -10 2 -16 5 -13 7 7 32
-13 32 -26 0 -6 -8 -4 -17 3 -16 13 -17 12 -4 -3 7 -10 17 -16 21 -13 8 5 85
-83 85 -97 0 -5 3 -7 6 -5 10 3 49 -35 44 -43 -3 -4 3 -14 13 -21 15 -13 16
-12 3 4 -20 25 2 21 27 -6 12 -13 19 -27 15 -31 -4 -4 0 -4 9 -1 9 4 19 1 24
-6 5 -8 3 -10 -7 -4 -12 8 -12 6 0 -8 15 -18 26 -23 16 -7 -9 15 2 12 30 -6
14 -9 23 -20 20 -24 -3 -5 0 -12 6 -16 8 -5 9 -3 4 6 -9 15 -10 15 82 -33 81
-42 192 -81 297 -105 64 -14 241 -16 1690 -19 891 -1 1624 1 1630 6 12 8 152
36 174 34 6 0 12 3 12 7 0 4 19 13 43 20 23 7 73 28 110 46 37 19 73 32 79 28
6 -4 8 -3 5 3 -8 13 50 46 65 37 6 -4 8 -3 4 4 -7 12 81 79 98 74 6 -2 8 0 4
4 -4 4 28 44 71 89 44 46 91 101 106 124 15 22 31 39 35 36 4 -3 7 1 6 8 0 6
20 55 46 107 26 52 58 132 71 178 13 45 25 80 28 78 2 -2 5 26 7 62 1 36 5 69
10 74 7 7 -3 4627 -10 4695 -2 17 -6 29 -10 26 -7 -4 -12 29 -11 65 1 7 -5 11
-13 8 -8 -3 -14 0 -14 6 0 6 -8 2 -18 -10 -22 -25 -164 -84 -204 -86 -16 -1
-28 -4 -28 -8 0 -10 -139 -31 -165 -24 -14 4 -25 2 -25 -4 0 -6 -29 -10 -70
-10 -41 0 -70 4 -70 10 0 6 -11 8 -25 4 -31 -8 -165 15 -165 27 0 6 -4 7 -10
4 -16 -10 -90 17 -90 32 0 8 -4 12 -9 9 -14 -9 -166 59 -166 74 0 7 -9 14 -21
15 -27 2 -144 84 -144 101 0 8 -7 14 -15 14 -8 0 -15 -6 -15 -14 0 -8 -12 -24
-27 -35 -16 -12 -32 -24 -38 -29 -129 -103 -349 -191 -487 -195 -37 -1 -68 -5
-68 -9 0 -10 -134 -11 -143 -1 -4 4 -29 7 -55 7 -32 1 -54 7 -66 19 -19 19
-31 23 -21 7 8 -12 11 -13 -55 10 -30 10 -55 23 -55 28 0 6 -4 14 -9 19 -5 5
-6 3 -2 -4 11 -19 -17 -16 -45 5 -39 28 -62 41 -101 58 -21 9 -38 22 -38 30 0
8 -7 14 -16 14 -18 0 -114 59 -114 70 0 4 -6 7 -12 7 -7 0 -20 4 -29 7 -10 5
-32 -5 -60 -26z m-2469 -2623 l0 -1915 -269 0 c-283 0 -356 8 -475 49 -55 20
-171 78 -199 101 -95 76 -147 123 -147 132 0 6 7 5 18 -3 14 -11 14 -10 -2 8
-10 13 -22 20 -27 18 -11 -7 -50 45 -42 58 3 6 1 7 -5 3 -11 -7 -17 6 -13 27
1 5 -2 6 -7 3 -12 -7 -54 73 -45 86 3 6 1 8 -4 5 -12 -8 -36 50 -27 64 3 5 1
9 -5 9 -9 0 -33 72 -45 140 -10 56 -8 2414 3 2418 5 2 7 12 4 23 -11 41 94
308 116 294 5 -2 8 3 7 13 0 9 4 16 11 15 7 -2 10 3 7 11 -5 13 130 166 148
166 5 0 6 -6 2 -12 -4 -8 -3 -10 2 -5 5 5 9 14 9 20 0 18 114 91 196 125 89
36 156 51 144 32 -5 -9 -4 -11 4 -6 6 4 9 11 6 16 -9 14 43 17 348 18 l287 2
0 -1915z m2730 1815 c387 -17 600 -61 805 -163 112 -56 171 -95 244 -162 155
-144 251 -328 281 -542 18 -123 8 -358 -19 -458 -56 -209 -187 -387 -371 -505
-70 -46 -166 -90 -176 -82 -4 4 -4 0 -2 -8 3 -8 11 -14 18 -12 34 8 301 -88
339 -122 9 -9 21 -16 24 -16 13 0 112 -73 155 -114 47 -45 105 -124 105 -143
0 -7 3 -11 5 -8 9 8 53 -59 47 -73 -3 -8 0 -10 7 -6 8 5 9 2 5 -10 -5 -11 -3
-15 5 -10 8 5 9 2 5 -10 -4 -9 -3 -15 2 -12 11 7 23 -22 14 -36 -4 -7 -1 -8 7
-3 10 6 12 4 7 -9 -4 -10 -3 -15 3 -11 8 5 19 -27 61 -175 9 -30 13 -114 14
-245 0 -165 -3 -214 -19 -277 -11 -42 -23 -75 -26 -73 -4 2 -5 -7 -2 -22 4
-19 2 -24 -8 -18 -9 5 -11 4 -6 -3 11 -19 -63 -191 -117 -272 -89 -132 -219
-253 -357 -335 -84 -49 -270 -127 -288 -120 -8 3 -10 0 -6 -7 5 -7 0 -9 -14
-6 -12 4 -20 3 -17 -1 9 -16 -313 -91 -392 -91 -17 0 -34 -4 -38 -9 -3 -6
-322 -9 -793 -8 l-787 2 -43 24 c-57 33 -96 100 -88 150 4 26 3 32 -5 21 -8
-11 -9 -4 -7 27 2 23 0 39 -4 37 -13 -8 -10 3615 3 3699 19 125 83 195 199
216 63 12 971 13 1230 1z"/>
<path d="M3999 4514 c-9 -12 -10 -15 -1 -10 10 6 12 -101 12 -539 l-1 -546
318 1 c291 0 324 2 393 21 107 30 162 61 234 132 69 68 115 148 140 244 21 79
21 237 0 315 -8 33 -13 67 -10 75 4 9 2 11 -6 7 -8 -5 -9 -2 -5 10 5 11 3 15
-5 10 -8 -5 -9 -1 -4 12 4 10 4 15 0 11 -10 -9 -45 44 -37 56 3 6 1 7 -4 4
-11 -7 -31 11 -31 26 0 5 -4 12 -8 15 -4 4 -4 0 1 -8 4 -8 -3 -4 -16 10 -13
13 -23 28 -22 31 1 4 -5 6 -15 5 -9 0 -16 4 -15 10 1 8 -6 10 -19 6 -17 -4
-20 -2 -15 11 3 9 1 19 -5 23 -7 4 -8 3 -4 -4 10 -16 -8 -15 -52 4 -99 42
-198 54 -502 61 -162 3 -298 10 -301 15 -3 5 -12 1 -20 -8z"/>
<path d="M4005 2204 l0 -604 386 0 c492 0 552 10 705 117 162 112 234 257 234
468 0 180 -51 315 -157 417 -68 64 -122 97 -217 133 -118 43 -223 55 -566 61
-173 2 -331 6 -350 8 l-35 3 0 -603z"/>
<path d="M17220 4783 c-14 -3 -32 -11 -40 -18 -8 -7 -27 -15 -41 -18 -14 -4
-31 -18 -37 -32 -15 -33 -17 -3650 -2 -3660 5 -3 7 -12 4 -19 -7 -18 11 -30
76 -52 48 -17 86 -19 300 -19 212 0 252 2 297 18 29 10 60 28 68 40 13 19 15
241 15 1857 0 2066 9 1868 -82 1895 -41 12 -102 15 -292 14 -133 -1 -252 -4
-266 -6z"/>
<path d="M18950 4510 c0 -5 -9 -10 -20 -10 -11 0 -39 -7 -62 -16 -94 -37 -98
-52 -98 -396 l0 -277 -154 -3 c-176 -3 -190 -9 -235 -89 -25 -43 -25 -50 -26
-227 0 -111 4 -186 10 -190 6 -4 19 -25 30 -47 11 -22 26 -40 33 -41 6 -1 86
-2 177 -2 l165 -2 4 -687 c4 -686 12 -919 35 -1023 14 -61 48 -155 67 -184 7
-10 10 -24 8 -30 -3 -7 6 -24 20 -39 14 -15 22 -27 18 -27 -3 0 4 -7 16 -16
12 -8 20 -19 17 -24 -3 -4 2 -10 10 -14 8 -3 15 -13 15 -21 0 -9 4 -14 8 -11
4 2 37 -22 72 -55 35 -32 70 -59 78 -59 7 0 34 -11 61 -24 92 -47 202 -68 385
-74 196 -6 298 6 432 50 162 53 179 86 179 353 0 194 -11 259 -47 271 -26 8
-148 -15 -148 -28 0 -6 -7 -8 -15 -4 -8 3 -15 2 -15 -2 0 -4 -10 -7 -22 -8
-68 -3 -214 -5 -220 -3 -5 1 -12 3 -18 4 -5 1 -13 4 -17 5 -5 2 -13 4 -18 4
-6 1 -17 7 -25 14 -8 7 -24 20 -36 30 -29 23 -61 89 -81 164 -14 55 -17 154
-20 751 l-5 687 307 0 307 0 28 30 c42 45 53 110 48 295 -3 133 -7 167 -23
200 -36 72 -49 75 -377 75 l-288 0 0 303 c0 220 -4 308 -13 326 -13 26 -85 60
-129 60 -16 1 -28 6 -28 11 0 6 -72 10 -195 10 -123 0 -195 -4 -195 -10z"/>
<path d="M8535 3848 c-93 -31 -298 -182 -348 -256 -14 -20 -43 -57 -66 -80
-23 -24 -41 -47 -41 -50 0 -4 -11 -20 -25 -36 -14 -16 -26 -34 -27 -40 -1 -6
-4 74 -7 177 l-6 189 -30 24 c-45 36 -116 46 -302 42 -151 -3 -173 -5 -220
-26 -37 -17 -55 -32 -65 -55 -11 -26 -13 -274 -13 -1359 l0 -1327 21 -28 c35
-47 79 -56 305 -61 263 -5 340 5 387 55 l32 34 0 827 0 827 35 52 c19 29 35
55 35 59 0 32 219 274 247 274 7 0 13 5 13 10 0 6 7 10 15 10 8 0 15 5 15 10
0 6 6 10 14 10 8 0 22 7 31 16 8 9 27 17 40 18 14 0 25 4 25 7 0 8 149 3 170
-5 8 -3 24 -7 35 -9 11 -2 27 -7 35 -10 49 -19 120 -34 143 -30 36 7 65 50 77
114 6 28 10 145 10 259 0 297 -9 318 -145 356 -59 16 -343 18 -390 2z"/>
<path d="M10413 3850 c-23 -5 -51 -14 -62 -19 -11 -6 -31 -11 -46 -11 -14 0
-43 -9 -65 -20 -22 -11 -48 -20 -58 -20 -11 0 -31 -9 -45 -20 -14 -11 -34 -20
-45 -20 -10 0 -31 -9 -45 -20 -14 -11 -30 -20 -36 -20 -15 0 -81 -46 -116 -81
-16 -16 -58 -52 -92 -79 -34 -28 -70 -62 -80 -76 -10 -14 -35 -45 -55 -68 -35
-39 -147 -247 -148 -272 0 -6 -8 -22 -18 -35 -20 -27 -59 -132 -72 -194 -5
-22 -14 -58 -20 -80 -42 -153 -45 -654 -5 -917 4 -27 10 -48 14 -48 3 0 7 -17
9 -37 1 -20 7 -40 12 -43 6 -4 8 -14 4 -23 -3 -10 -1 -17 6 -17 6 0 8 -5 5
-10 -8 -13 16 -80 28 -80 5 0 7 -7 3 -15 -3 -8 -1 -15 5 -15 6 0 7 -5 3 -11
-3 -6 -2 -14 3 -18 5 -3 32 -48 59 -100 27 -51 63 -108 80 -125 17 -17 33 -36
35 -41 6 -15 195 -185 215 -194 30 -12 84 -42 95 -54 34 -33 218 -94 394 -129
99 -20 139 -23 400 -22 252 0 308 3 424 22 152 25 354 74 409 99 21 9 42 17
49 18 7 0 18 6 25 13 6 6 17 12 24 12 17 0 84 67 84 84 0 8 6 16 13 18 9 4 12
53 12 201 0 193 0 196 -24 221 -21 23 -33 26 -85 26 -39 -1 -87 -10 -131 -26
-38 -13 -93 -31 -120 -39 -28 -7 -71 -21 -95 -29 -25 -9 -57 -16 -72 -16 -16
0 -28 -4 -28 -9 0 -33 -553 -51 -667 -21 -29 8 -53 17 -53 22 0 4 -7 5 -15 2
-8 -4 -15 -1 -15 5 0 6 -9 11 -20 11 -11 0 -20 5 -20 11 0 5 -4 7 -10 4 -5 -3
-10 -1 -10 6 0 7 -3 10 -6 6 -4 -3 -13 1 -21 9 -8 8 -19 12 -23 9 -10 -6 -109
90 -156 150 -62 81 -102 218 -113 387 l-6 88 837 2 836 3 44 30 c23 17 54 51
68 75 25 45 25 46 24 290 -1 225 -4 255 -28 365 -15 66 -31 134 -37 150 -29
79 -64 160 -71 163 -5 2 -6 8 -2 13 3 5 0 9 -6 9 -6 0 -8 5 -5 10 3 6 1 10 -4
10 -6 0 -11 5 -11 10 0 6 -29 52 -64 103 -64 92 -199 229 -246 250 -14 7 -27
14 -30 18 -5 6 -93 48 -169 81 -47 20 -119 40 -231 64 -73 15 -544 18 -617 4z
m454 -530 c129 -34 204 -93 266 -210 31 -58 46 -98 78 -206 5 -17 9 -74 9
-127 l0 -97 -545 0 -545 0 0 33 c0 57 30 204 55 272 70 184 208 309 380 345
76 15 226 11 302 -10z"/>
<path d="M12408 3807 c-100 -29 -130 -77 -108 -176 14 -65 62 -248 97 -371 14
-47 32 -112 40 -145 9 -33 19 -62 22 -65 3 -3 7 -18 9 -35 2 -16 8 -32 13 -33
5 -2 7 -7 4 -12 -4 -6 9 -56 32 -120 3 -8 7 -28 8 -44 2 -16 9 -32 16 -36 7
-5 12 -22 12 -39 0 -17 4 -31 8 -31 4 0 12 -19 18 -42 5 -24 19 -74 31 -113
11 -38 29 -101 40 -140 10 -38 28 -101 40 -140 11 -38 27 -96 35 -127 8 -32
19 -66 24 -75 5 -10 17 -53 26 -95 10 -43 22 -78 27 -78 5 0 6 -9 3 -20 -3
-11 -2 -20 3 -20 5 0 9 -6 9 -12 -2 -26 16 -88 25 -88 5 0 8 -6 7 -12 -4 -34
2 -69 11 -63 6 3 10 0 10 -8 0 -8 10 -48 23 -88 13 -41 34 -112 46 -159 12
-47 31 -110 41 -140 10 -30 21 -71 25 -90 3 -19 16 -60 28 -90 47 -122 110
-140 492 -140 331 0 400 14 457 90 12 16 62 202 134 490 63 256 119 474 124
485 9 18 86 323 151 598 13 53 26 97 30 97 3 0 11 -21 17 -47 6 -27 17 -73 25
-103 9 -30 27 -100 42 -155 15 -55 35 -131 46 -170 11 -38 23 -86 28 -106 4
-19 15 -57 23 -85 20 -62 48 -169 55 -211 3 -18 9 -33 14 -33 5 0 6 -7 3 -15
-4 -8 -1 -15 6 -15 6 0 8 -4 5 -10 -3 -5 1 -24 9 -42 8 -18 24 -69 35 -113 11
-44 26 -105 35 -135 8 -30 26 -100 41 -155 14 -55 40 -144 57 -198 30 -97 30
-98 78 -122 72 -36 151 -45 421 -45 346 0 418 17 457 109 23 53 78 237 212
711 18 63 38 129 46 145 7 17 31 93 53 170 97 336 141 487 171 595 18 63 37
126 43 140 5 14 11 32 12 40 5 31 30 115 36 120 7 6 104 340 151 520 20 73 31
142 32 189 l1 73 -50 21 c-46 20 -68 22 -290 22 -345 0 -373 -13 -409 -195 -6
-28 -30 -122 -56 -220 -31 -113 -43 -164 -50 -210 -4 -25 -14 -62 -23 -84 -9
-21 -17 -50 -17 -65 -1 -14 -9 -51 -20 -81 -11 -30 -19 -68 -20 -84 0 -16 -9
-44 -21 -62 -11 -19 -25 -58 -29 -87 -9 -57 -31 -139 -61 -232 -10 -33 -19
-74 -19 -91 0 -17 -7 -48 -15 -69 -9 -20 -20 -55 -25 -78 -24 -111 -49 -215
-59 -247 -7 -19 -16 -53 -21 -75 -21 -96 -41 -170 -49 -178 -4 -4 -26 66 -49
155 -23 90 -61 235 -83 323 -23 88 -44 162 -48 165 -3 3 -7 20 -8 39 -1 18 -7
38 -12 45 -8 10 -132 475 -263 986 -12 47 -25 88 -30 91 -5 3 -6 13 -2 22 3
10 1 17 -6 17 -6 0 -10 8 -8 18 1 9 -1 23 -5 30 -5 6 -5 12 -1 12 3 0 2 6 -3
13 -11 13 -27 67 -25 80 1 4 -12 16 -30 26 -52 33 -154 43 -367 40 -176 -4
-200 -6 -226 -24 -17 -11 -39 -24 -50 -30 -11 -6 -21 -19 -23 -30 -2 -11 -12
-29 -23 -41 -10 -11 -23 -46 -28 -80 -10 -60 -31 -142 -57 -226 -9 -26 -19
-71 -24 -100 -10 -57 -34 -155 -56 -228 -7 -25 -16 -65 -20 -90 -3 -25 -12
-63 -20 -85 -8 -22 -19 -62 -24 -90 -20 -113 -60 -266 -72 -279 -4 -6 -8 -22
-8 -36 0 -14 -4 -30 -8 -35 -12 -14 -32 -87 -32 -116 0 -13 -9 -48 -20 -77
-11 -29 -20 -65 -20 -81 0 -15 -9 -54 -20 -86 -11 -32 -20 -68 -20 -79 0 -12
-9 -48 -20 -80 -11 -33 -20 -71 -20 -86 0 -26 -20 -80 -31 -80 -3 0 -22 64
-42 143 -20 78 -62 234 -92 347 -30 113 -71 266 -90 340 -19 74 -39 142 -44
151 -9 16 -62 206 -161 579 -115 434 -125 461 -188 481 -56 18 -494 22 -554 6z"/>
</g>
</svg>
