<?xml version="1.0" standalone="no"?>
<!DOCTYPE svg PUBLIC "-//W3C//DTD SVG 20010904//EN"
 "http://www.w3.org/TR/2001/REC-SVG-20010904/DTD/svg10.dtd">
<svg version="1.0" xmlns="http://www.w3.org/2000/svg"
 width="1200.000000pt" height="1200.000000pt" viewBox="0 0 1200.000000 1200.000000"
 preserveAspectRatio="xMidYMid meet">
<metadata>
Created by potrace 1.15, written by Peter Selinger 2001-2017
</metadata>
<g transform="translate(0.000000,1200.000000) scale(0.100000,-0.100000)"
fill="#000000" stroke="none">
<path d="M5128 10429 c-279 -41 -526 -196 -678 -426 -45 -69 -59 -83 -81 -83
-49 0 -214 -32 -289 -57 -183 -60 -331 -148 -474 -283 -110 -104 -187 -207
-253 -336 -97 -189 -137 -361 -136 -579 4 -598 438 -1110 1033 -1216 96 -17
324 -17 420 0 111 20 274 76 367 126 l83 45 62 -34 c88 -48 196 -89 308 -117
84 -21 117 -24 295 -23 183 0 208 3 296 26 124 34 237 79 322 129 l68 41 132
-66 c178 -89 316 -125 513 -133 254 -10 482 43 679 158 37 21 70 39 74 39 4 0
43 -20 87 -45 218 -125 480 -181 724 -156 451 46 823 307 1015 713 254 537 81
1193 -405 1540 -358 255 -841 301 -1239 117 -47 -22 -107 -53 -133 -70 l-47
-31 -30 22 c-83 58 -365 170 -430 170 -10 0 -35 25 -57 57 -129 190 -340 349
-561 423 -286 95 -572 75 -848 -59 l-120 -59 -75 44 c-184 107 -417 153 -622
123z m280 -383 c86 -23 175 -70 246 -130 133 -113 188 -114 328 -8 85 64 175
107 280 134 69 17 102 20 208 15 139 -6 205 -23 325 -85 83 -43 227 -181 270
-257 78 -141 96 -153 247 -178 54 -9 136 -32 183 -51 77 -31 118 -56 269 -162
41 -29 57 -34 105 -34 61 0 86 12 170 78 69 55 193 117 296 148 80 24 106 27
235 27 128 0 155 -3 233 -27 306 -92 525 -316 609 -621 31 -116 31 -317 0
-433 -59 -219 -189 -397 -380 -520 -300 -194 -706 -174 -996 48 -140 107 -189
107 -333 -2 -97 -72 -205 -125 -322 -155 -86 -22 -111 -24 -236 -20 -117 4
-154 9 -225 32 -104 33 -192 80 -285 150 -39 30 -83 59 -99 64 -66 26 -131 5
-231 -74 -71 -55 -213 -127 -305 -152 -102 -28 -349 -25 -453 5 -94 27 -212
85 -287 141 -95 72 -172 77 -258 15 -195 -140 -358 -191 -581 -181 -150 6
-237 29 -361 93 -398 205 -572 671 -409 1094 54 142 182 303 309 390 151 103
293 149 488 157 170 8 196 21 249 133 92 194 229 315 409 365 66 18 236 18
302 1z"/>
<path d="M6430 7387 c-91 -68 -240 -157 -260 -157 -11 0 -20 -4 -20 -8 0 -5
-19 -15 -42 -22 -24 -7 -47 -15 -53 -17 -81 -26 -315 -42 -423 -28 -67 9 -145
26 -157 35 -5 4 -42 17 -82 29 -106 32 -176 67 -231 116 -28 25 -55 45 -62 45
-7 0 -32 -18 -57 -40 -64 -56 -201 -123 -334 -161 -106 -31 -124 -33 -254 -33
-157 1 -251 19 -391 74 l-79 32 -290 -5 c-317 -6 -411 -17 -569 -68 -204 -67
-370 -166 -523 -312 -211 -202 -340 -434 -405 -730 l-23 -102 0 -1220 0 -1220
23 -102 c63 -286 177 -498 377 -699 241 -243 532 -377 876 -404 68 -5 230 -10
360 -10 l235 0 19 -61 c28 -94 96 -225 162 -314 169 -227 420 -383 692 -430
71 -13 318 -15 1652 -15 1501 0 1572 1 1666 19 295 58 550 230 715 486 67 104
109 200 147 334 l26 96 0 2310 c0 2153 -1 2315 -17 2384 -10 41 -20 76 -23 79
-2 3 -42 -12 -87 -33 -45 -20 -125 -48 -177 -62 -188 -50 -482 -31 -616 38
-22 12 -61 29 -86 39 -54 22 -206 118 -233 148 l-19 22 -31 -31 c-66 -66 -212
-151 -326 -191 -194 -67 -441 -74 -590 -16 -89 34 -119 48 -125 58 -3 5 -27
19 -53 32 -26 12 -71 39 -101 58 -29 19 -61 40 -71 45 -10 6 -25 17 -34 24 -9
7 -16 10 -16 5 0 -4 -5 -3 -12 4 -18 18 -28 15 -78 -21z m-2420 -2572 l0
-1885 -275 0 c-306 0 -374 8 -502 62 -243 100 -427 314 -493 572 -19 77 -20
109 -20 1248 0 1284 -3 1226 61 1380 84 205 277 387 491 464 98 35 170 42 456
43 l282 1 0 -1885z m2681 1785 c437 -19 687 -83 924 -235 157 -100 282 -264
344 -450 41 -126 54 -229 48 -397 -5 -168 -26 -261 -89 -387 -87 -175 -225
-308 -413 -395 l-60 -28 85 -23 c356 -97 599 -335 696 -681 27 -94 28 -110 28
-299 0 -185 -2 -208 -27 -300 -35 -134 -85 -248 -148 -342 -220 -327 -610
-521 -1149 -573 -76 -7 -351 -10 -805 -8 l-690 3 -46 27 c-61 36 -94 92 -108
185 -15 100 -16 3584 0 3686 19 125 83 195 199 216 63 12 950 13 1211 1z"/>
<path d="M6090 5447 l0 -537 312 0 c287 0 318 2 387 21 107 30 162 60 230 127
103 101 151 228 151 399 0 190 -61 321 -191 410 -121 83 -219 102 -591 110
l-298 6 0 -536z"/>
<path d="M6090 3712 l0 -592 379 0 c300 0 395 3 453 15 240 50 399 190 453
400 8 33 15 102 15 155 0 175 -52 311 -157 412 -68 64 -122 97 -217 133 -120
44 -223 55 -588 62 l-338 6 0 -591z"/>
</g>
</svg>
