<?xml version="1.0" standalone="no"?>
<!DOCTYPE svg PUBLIC "-//W3C//DTD SVG 20010904//EN"
 "http://www.w3.org/TR/2001/REC-SVG-20010904/DTD/svg10.dtd">
<svg version="1.0" xmlns="http://www.w3.org/2000/svg"
 width="2027.000000pt" height="910.000000pt" viewBox="0 0 2027.000000 910.000000"
 preserveAspectRatio="xMidYMid meet">
<metadata>
Created by potrace 1.15, written by Peter Selinger 2001-2017
</metadata>
<g transform="translate(0.000000,910.000000) scale(0.100000,-0.100000)"
fill="#000000" stroke="none">
<path d="M3005 9046 c-109 -18 -209 -51 -295 -97 -8 -4 -33 -17 -55 -28 -49
-25 -159 -111 -151 -118 3 -3 36 17 74 45 86 64 234 136 337 163 112 30 323
37 435 15 113 -23 235 -69 318 -120 l70 -44 119 59 c167 84 277 111 469 116
112 4 172 1 237 -11 96 -18 234 -64 312 -104 146 -73 327 -231 413 -358 40
-60 41 -61 114 -79 115 -27 228 -72 322 -126 47 -27 91 -49 98 -49 6 0 32 13
57 30 105 67 282 134 426 162 42 8 136 13 235 12 143 0 179 -4 271 -26 181
-45 298 -99 452 -205 62 -43 75 -49 62 -29 -10 14 -21 26 -27 26 -5 0 -21 11
-36 25 -15 14 -36 28 -46 31 -11 4 -43 22 -72 40 -29 19 -60 34 -69 34 -8 0
-15 4 -15 9 0 10 -165 64 -271 88 -55 13 -122 17 -264 17 -204 1 -272 -10
-440 -70 -72 -25 -176 -73 -185 -85 -3 -3 -15 -9 -27 -13 -13 -4 -23 -12 -23
-17 0 -18 -33 -8 -138 45 -120 60 -217 97 -309 117 -58 12 -64 16 -94 62 -45
70 -189 218 -267 275 -79 58 -160 104 -222 127 -25 10 -59 23 -76 31 -56 24
-211 53 -320 60 -202 11 -395 -28 -572 -116 l-114 -58 -37 25 c-172 117 -469
177 -696 139z"/>
<path d="M2396 8693 c-22 -24 -63 -72 -85 -103 -18 -24 -21 -31 -21 -49 0 -4
-33 -11 -73 -15 -178 -16 -357 -76 -539 -182 -82 -48 -122 -81 -250 -209 -190
-192 -330 -489 -355 -757 -10 -103 12 -61 25 48 23 193 106 403 220 556 82
111 154 198 163 198 4 0 31 21 61 46 106 91 314 204 443 241 76 21 82 22 195
39 86 13 108 19 120 37 8 12 38 54 67 94 53 75 60 86 29 56z"/>
<path d="M3013 8641 c-79 -22 -160 -61 -200 -98 -7 -6 -18 -13 -25 -16 -7 -2
-10 -8 -6 -12 4 -4 22 4 40 18 94 71 213 107 348 107 105 0 193 -20 260 -57
79 -45 144 -90 165 -113 27 -31 92 -60 136 -60 41 0 129 28 129 41 0 5 19 21
43 35 23 15 44 30 47 34 13 16 182 90 241 104 113 28 350 15 426 -22 158 -77
191 -99 269 -176 54 -55 91 -103 115 -148 30 -60 49 -83 49 -60 0 23 -112 176
-170 232 -280 270 -713 281 -1013 25 -21 -18 -59 -38 -84 -44 -75 -19 -129 0
-212 74 -113 99 -228 145 -381 151 -82 3 -120 0 -177 -15z"/>
<path d="M7350 8225 c0 -2 33 -37 73 -77 138 -140 245 -311 306 -493 83 -248
85 -542 4 -790 -48 -151 -156 -345 -242 -439 l-26 -29 26 17 c14 9 32 27 39
41 7 14 17 25 21 25 4 0 17 19 29 43 12 23 30 51 40 62 54 60 134 252 168 402
24 112 24 417 -1 528 -30 130 -57 208 -104 300 -9 17 -23 44 -31 60 -9 17 -19
32 -22 35 -4 3 -10 15 -14 28 -4 12 -16 27 -27 32 -10 6 -19 17 -19 25 0 8 -5
15 -12 15 -6 0 -9 2 -6 5 6 6 -11 26 -120 139 -69 71 -82 83 -82 71z"/>
<path d="M2504 8159 c-25 -16 -55 -20 -150 -23 -136 -5 -260 -31 -357 -75
-212 -96 -383 -275 -469 -491 -29 -72 -54 -187 -44 -197 10 -11 15 1 19 47 2
25 12 62 21 84 9 21 16 42 16 46 0 11 29 68 83 163 60 106 187 232 293 290
140 77 296 116 467 117 89 0 129 12 156 44 18 21 3 19 -35 -5z"/>
<path d="M5112 8146 c20 -18 43 -26 85 -31 182 -19 301 -71 507 -220 43 -31
55 -35 113 -35 74 0 99 11 183 79 103 82 272 155 390 168 61 6 84 23 32 23
-83 0 -326 -92 -389 -146 -11 -11 -31 -26 -43 -34 -13 -8 -36 -25 -51 -38 -32
-26 -79 -42 -124 -42 -29 0 -114 33 -125 49 -13 20 -122 92 -185 124 -88 44
-181 73 -279 86 -42 6 -91 18 -109 26 l-32 16 27 -25z"/>
<path d="M6615 8120 c3 -5 19 -10 34 -10 82 0 334 -102 407 -165 41 -35 144
-136 144 -141 0 -3 6 -12 13 -19 32 -36 42 -50 42 -58 0 -4 6 -11 13 -16 8 -5
13 -12 13 -17 -1 -5 15 -40 33 -79 36 -71 76 -201 76 -242 0 -13 4 -23 10 -23
23 0 -30 192 -82 297 -46 92 -147 225 -205 268 -21 16 -40 32 -43 35 -15 18
-111 76 -176 107 -114 52 -298 94 -279 63z"/>
<path d="M1070 7157 c0 -63 48 -265 88 -364 21 -56 60 -137 85 -180 80 -136
232 -311 326 -375 25 -18 69 -47 96 -66 131 -90 325 -161 513 -187 129 -17
252 -20 252 -5 0 6 -41 10 -104 10 -321 0 -632 134 -871 374 -195 197 -311
427 -359 716 -3 14 -5 44 -5 68 -1 49 -21 58 -21 9z"/>
<path d="M4331 6634 c-19 -8 -53 -29 -75 -47 -53 -43 -186 -118 -256 -145
-110 -42 -202 -55 -349 -49 -109 4 -150 10 -206 30 -109 38 -215 90 -275 136
-65 49 -117 65 -179 56 -53 -8 -70 -16 -107 -50 -14 -13 -35 -27 -45 -30 -17
-6 -27 -25 -14 -25 4 0 32 19 65 41 44 32 71 43 109 47 70 6 84 1 196 -73 178
-117 336 -162 540 -152 197 9 333 59 496 182 82 61 155 92 191 81 7 -2 24 -7
38 -10 14 -3 61 -33 105 -66 94 -72 211 -131 315 -159 82 -23 100 -25 100 -12
0 5 -18 11 -41 15 -85 14 -274 91 -301 123 -6 7 -17 13 -25 13 -7 0 -16 7 -19
15 -4 8 -12 15 -19 15 -8 0 -23 12 -34 26 -39 49 -142 68 -210 38z"/>
<path d="M7330 6273 c-174 -138 -371 -229 -579 -268 -49 -9 -139 -15 -221 -15
-240 0 -441 54 -642 171 l-68 40 -58 -33 c-309 -180 -670 -224 -1017 -123 -94
27 -253 98 -306 136 l-31 22 -37 -22 c-119 -72 -239 -120 -421 -169 -25 -7
-29 -10 -12 -11 64 -3 286 77 401 144 63 37 65 37 90 21 38 -25 176 -90 246
-115 167 -62 447 -87 640 -58 96 15 230 52 305 84 83 35 180 86 180 94 0 5 9
9 20 9 11 0 20 -4 20 -10 0 -5 6 -10 14 -10 8 0 21 -7 29 -15 22 -21 181 -90
280 -120 93 -28 267 -54 362 -55 199 0 427 56 610 151 65 34 204 131 231 160
30 34 10 29 -36 -8z"/>
<path d="M2945 6133 c-109 -61 -276 -118 -380 -130 -22 -3 -58 -9 -80 -14 -32
-7 -26 -8 30 -4 134 9 325 69 461 146 l50 28 35 -21 c107 -66 378 -153 453
-146 21 2 2 9 -61 21 -117 22 -246 67 -348 121 l-81 43 -79 -44z"/>
<path d="M2940 5914 c-25 -19 -52 -40 -60 -47 -23 -19 -181 -97 -196 -97 -8 0
-53 -11 -100 -25 -47 -14 -97 -25 -110 -25 -13 0 -24 -4 -24 -10 0 -18 45 -11
167 24 129 38 259 102 334 166 26 22 51 40 55 40 4 0 28 -20 54 -44 26 -24 67
-54 91 -67 43 -22 199 -78 290 -104 67 -19 229 -31 229 -16 0 7 -20 11 -52 11
-69 1 -197 24 -234 42 -16 9 -45 18 -64 22 -74 13 -190 70 -244 118 -30 26
-62 48 -73 47 -10 0 -38 -16 -63 -35z"/>
<path d="M1410 5810 c0 -6 81 -10 238 -10 l237 0 73 -30 c114 -48 302 -85 302
-60 0 6 -17 10 -37 10 -53 0 -182 34 -256 67 -61 27 -65 28 -309 31 -166 2
-248 -1 -248 -8z"/>
<path d="M7064 5803 c3 -10 12 -58 21 -107 13 -78 15 -367 15 -2367 0 -1513 3
-2279 10 -2279 14 0 14 4486 -1 4600 -5 46 -14 89 -19 96 -6 6 -7 14 -4 17 10
9 -5 57 -17 57 -6 0 -8 -8 -5 -17z"/>
<path d="M1245 5223 c-243 -52 -460 -221 -572 -448 -36 -71 -73 -185 -72 -217
0 -13 11 14 23 58 24 85 74 194 89 194 4 0 5 5 2 10 -3 6 -1 10 5 10 6 0 9 4
6 9 -3 5 1 12 10 15 9 4 15 9 12 11 -8 8 153 185 167 185 3 0 18 11 32 24 27
25 178 105 210 111 10 2 19 4 21 5 1 2 7 4 12 5 6 1 13 4 18 5 4 1 12 3 17 5
6 1 12 3 15 4 13 6 98 9 358 12 l282 4 0 -1898 0 -1898 -302 3 c-346 5 -362 7
-523 88 -105 52 -239 159 -276 219 -10 17 -23 31 -29 31 -5 0 -10 7 -10 15 0
8 -5 15 -11 15 -5 0 -8 4 -4 9 3 5 -1 15 -8 23 -17 17 -44 65 -57 102 -6 16
-13 26 -17 23 -3 -4 7 -32 22 -64 54 -112 130 -211 215 -279 30 -24 60 -48 66
-53 26 -21 126 -73 185 -96 116 -46 199 -55 490 -55 l269 0 0 1915 0 1915
-287 -1 c-215 0 -306 -4 -358 -16z"/>
<path d="M3390 5139 c-116 -21 -180 -91 -199 -216 -16 -103 -15 -3642 0 -3750
14 -97 44 -151 101 -184 l43 -24 787 -2 c471 -1 790 2 793 8 4 5 21 9 38 9 49
0 242 38 337 67 504 151 777 415 891 863 21 85 24 116 24 295 -1 188 -2 206
-29 299 -43 155 -146 338 -249 444 -38 39 -149 122 -164 122 -4 0 -15 7 -24
16 -24 22 -165 80 -254 104 -79 23 -85 23 -85 11 0 -5 30 -16 67 -25 88 -23
225 -80 279 -117 23 -16 45 -29 48 -29 21 0 176 -137 176 -156 0 -5 16 -27 35
-49 19 -22 38 -45 43 -50 26 -31 95 -194 119 -280 25 -93 27 -114 28 -290 0
-241 -14 -313 -107 -525 -12 -28 -28 -56 -35 -61 -7 -6 -11 -15 -8 -19 3 -4
-2 -11 -11 -14 -8 -3 -13 -10 -9 -15 3 -6 -1 -13 -8 -18 -8 -4 -31 -33 -51
-63 -37 -54 -171 -190 -188 -190 -5 0 -20 -11 -34 -25 -14 -14 -31 -25 -39
-25 -8 0 -15 -4 -15 -10 0 -5 -6 -10 -14 -10 -8 0 -28 -11 -44 -25 -16 -13
-32 -22 -36 -18 -3 3 -6 1 -6 -6 0 -7 -4 -9 -10 -6 -5 3 -10 1 -10 -4 0 -6 -3
-10 -7 -9 -9 1 -25 -5 -124 -50 -95 -43 -233 -81 -384 -107 -185 -31 -308 -35
-985 -35 -745 0 -747 0 -794 54 -59 68 -66 79 -61 96 3 10 1 21 -4 24 -5 4 -7
22 -4 41 4 23 2 35 -6 35 -8 0 -10 478 -7 1828 2 1005 5 1841 7 1857 2 17 8
36 12 43 5 6 5 17 2 23 -10 15 44 88 85 114 70 44 143 48 802 42 647 -6 756
-12 958 -52 168 -34 264 -66 393 -133 330 -170 487 -447 487 -859 0 -381 -175
-671 -492 -816 -32 -14 -58 -30 -58 -36 0 -13 100 33 170 79 184 118 315 296
371 505 27 100 37 335 19 458 -58 409 -349 697 -814 807 -133 32 -289 50 -516
60 -259 12 -1167 11 -1230 -1z"/>
<path d="M17850 4731 c7 -13 10 -608 10 -1853 0 -1614 -2 -1836 -15 -1855 -8
-12 -39 -30 -68 -40 -45 -16 -85 -18 -302 -18 -212 1 -257 3 -294 18 -24 9
-46 15 -49 12 -3 -2 4 -7 14 -10 10 -4 35 -14 54 -23 27 -12 80 -17 245 -20
206 -4 249 0 360 31 94 27 85 -176 85 1908 0 1766 -1 1837 -18 1852 -25 23
-35 21 -22 -2z"/>
<path d="M4020 4523 c0 -6 108 -12 293 -16 306 -6 381 -15 502 -59 33 -12 62
-24 65 -27 3 -3 18 -13 34 -21 38 -20 102 -86 133 -138 39 -66 63 -173 63
-286 0 -173 -48 -297 -156 -403 -68 -67 -113 -94 -209 -127 -54 -18 -94 -20
-395 -26 l-335 -6 330 -2 c326 -2 331 -2 402 23 110 37 149 61 224 135 59 60
106 132 125 195 31 104 36 137 31 235 -2 58 -8 116 -12 130 -3 14 -7 31 -7 38
-1 6 -5 12 -10 12 -4 0 -7 3 -6 8 4 14 -55 118 -82 142 -14 14 -30 33 -33 43
-4 9 -13 17 -22 17 -8 0 -15 5 -15 10 0 6 -7 10 -15 10 -8 0 -15 4 -15 9 0 5
-8 11 -17 15 -10 3 -25 9 -33 14 -45 26 -69 35 -148 53 -71 15 -144 20 -389
26 -201 4 -303 3 -303 -4z"/>
<path d="M3997 4503 c-12 -11 -8 -1073 3 -1073 7 0 10 187 10 540 0 297 -1
540 -3 540 -2 0 -7 -3 -10 -7z"/>
<path d="M9040 3790 c0 -3 7 -23 15 -45 17 -48 21 -431 5 -514 -12 -64 -41
-107 -77 -114 -23 -4 -94 11 -143 30 -8 3 -24 8 -35 10 -11 2 -27 6 -35 9 -21
8 -170 13 -170 5 0 -3 -11 -7 -25 -7 -13 -1 -32 -9 -40 -18 -9 -9 -23 -16 -31
-16 -8 0 -14 -4 -14 -10 0 -5 -7 -10 -15 -10 -8 0 -15 -4 -15 -10 0 -5 -6 -10
-13 -10 -28 0 -247 -242 -247 -274 0 -4 -16 -30 -35 -59 l-35 -52 0 -827 0
-827 -32 -34 c-44 -46 -112 -57 -339 -57 -188 0 -289 12 -329 37 -23 15 -24
15 -12 0 8 -9 35 -24 60 -34 41 -16 80 -18 287 -18 263 0 291 5 351 57 l34 30
0 824 0 825 25 49 c13 27 29 51 35 55 6 3 25 30 43 58 19 29 50 68 70 87 21
19 37 39 37 45 0 20 107 104 179 140 90 46 166 56 237 30 71 -25 131 -37 198
-39 54 -1 61 1 80 27 20 27 21 41 24 321 3 281 2 294 -17 317 -11 13 -20 22
-21 19z"/>
<path d="M13010 3777 c0 -4 6 -18 14 -30 16 -25 50 -138 126 -427 103 -389
152 -565 160 -575 4 -5 10 -19 13 -30 4 -15 5 -14 6 7 0 15 -8 56 -18 90 -26
86 -41 144 -51 200 -5 26 -15 62 -23 80 -9 18 -18 54 -22 81 -3 26 -10 47 -14
47 -8 0 -17 28 -45 140 -9 36 -26 97 -37 135 -19 67 -27 99 -47 194 -5 24 -21
55 -36 69 -14 15 -26 23 -26 19z"/>
<path d="M16574 3692 c-1 -39 -14 -114 -31 -182 -48 -181 -145 -514 -152 -520
-6 -5 -31 -89 -36 -120 -1 -8 -7 -26 -12 -40 -6 -14 -25 -77 -43 -140 -30
-108 -74 -259 -171 -595 -22 -77 -46 -153 -53 -170 -8 -16 -28 -82 -46 -145
-134 -474 -189 -658 -212 -711 -39 -92 -111 -109 -457 -109 -261 0 -350 9
-412 40 -21 11 -41 20 -44 20 -14 0 8 -19 43 -38 66 -34 185 -45 477 -40 253
3 273 5 318 26 27 12 59 34 70 49 25 31 56 110 66 168 5 22 15 57 24 79 10 21
17 47 17 57 0 10 11 43 25 73 14 30 25 65 25 78 0 13 4 28 9 34 5 5 16 36 24
69 8 33 22 80 31 105 8 25 25 83 37 130 12 47 25 94 30 105 5 11 16 47 25 80
18 70 42 155 79 280 14 50 30 111 35 138 5 26 15 54 24 62 8 8 17 33 21 56 4
23 14 58 23 78 8 20 19 54 23 76 14 71 41 169 54 195 17 34 40 113 55 185 12
59 29 110 55 170 8 17 16 48 19 70 8 69 23 123 40 150 10 15 21 48 26 73 5 26
14 76 20 112 8 47 9 73 1 93 -17 44 -26 31 -27 -41z"/>
<path d="M20175 3735 c20 -55 25 -102 25 -233 0 -163 -11 -220 -50 -262 l-28
-30 -307 0 -307 0 5 -687 c3 -597 6 -696 20 -751 20 -74 52 -140 80 -164 28
-25 34 -22 10 5 -25 26 -56 99 -78 182 -14 52 -15 143 -13 720 l3 660 302 5
303 5 25 26 c38 38 44 81 45 300 0 185 -1 198 -21 220 -18 21 -20 21 -14 4z"/>
<path d="M14870 3505 c0 -6 9 -42 19 -80 11 -39 38 -140 60 -225 133 -517 184
-706 192 -716 5 -7 11 -27 12 -45 1 -19 5 -36 8 -39 4 -3 25 -77 48 -165 52
-204 59 -227 60 -198 1 25 -12 89 -36 173 -9 30 -20 69 -24 85 -13 45 -40 155
-48 196 -4 19 -15 57 -24 85 -23 71 -47 162 -57 214 -4 25 -15 65 -24 90 -9
25 -16 55 -16 68 0 12 -4 22 -10 22 -5 0 -12 17 -16 38 -4 20 -10 42 -14 47
-4 6 -13 44 -20 85 -7 41 -18 93 -25 115 -27 83 -43 141 -50 182 -6 37 -34 92
-35 68z"/>
<path d="M10565 3330 c-104 -22 -176 -63 -256 -147 -87 -90 -137 -197 -164
-351 -21 -121 -20 -152 5 -152 14 0 18 5 13 16 -9 25 16 184 38 232 10 23 19
52 19 64 0 23 48 100 104 167 33 40 128 111 147 111 5 0 9 5 9 10 0 6 10 10
22 10 23 0 81 16 110 31 22 11 195 12 202 1 3 -5 31 -15 63 -22 62 -15 122
-50 192 -115 24 -22 39 -31 33 -20 -14 27 -79 87 -124 114 -86 51 -288 76
-413 51z"/>
<path d="M11836 3205 c4 -11 14 -41 24 -67 10 -26 30 -105 46 -175 26 -119 28
-145 28 -368 1 -238 1 -240 -24 -285 -14 -24 -45 -58 -68 -75 l-44 -30 -836
-3 -837 -2 6 -88 c14 -202 64 -343 156 -440 21 -22 15 0 -12 43 -40 65 -68
127 -76 170 -4 22 -15 69 -24 104 -9 36 -15 91 -13 130 l3 66 835 5 835 5 33
25 c18 13 44 44 57 68 25 44 25 47 25 301 0 204 -3 268 -16 311 -8 30 -19 82
-24 115 -4 35 -23 92 -44 135 -20 41 -33 66 -30 55z"/>
<path d="M4013 2813 c4 -6 138 -12 349 -16 372 -7 474 -18 594 -62 95 -36 149
-69 217 -133 106 -102 157 -237 157 -417 0 -113 -17 -192 -58 -274 -49 -97
-150 -193 -265 -249 -105 -51 -142 -55 -587 -61 l-415 -7 392 -2 c431 -2 472
2 613 58 82 33 119 59 195 135 56 57 78 92 113 180 36 89 42 280 14 391 -29
109 -69 179 -149 255 -108 104 -219 157 -387 185 -111 18 -793 33 -783 17z"/>
<path d="M3990 2205 c0 -390 3 -595 10 -595 7 0 10 205 10 595 0 390 -3 595
-10 595 -7 0 -10 -205 -10 -595z"/>
<path d="M14391 2623 c-65 -275 -142 -580 -151 -598 -5 -11 -61 -229 -124
-485 -72 -288 -122 -474 -134 -490 -57 -76 -126 -90 -457 -90 -305 0 -403 14
-444 64 -8 9 -18 16 -24 16 -23 0 44 -56 80 -67 101 -30 163 -35 439 -31 233
4 287 8 329 22 54 20 115 74 115 105 0 10 6 34 14 52 8 19 17 57 21 84 4 28
16 76 26 107 11 32 19 68 19 82 0 13 11 47 25 74 14 28 25 63 25 80 0 16 7 47
16 68 9 22 20 62 24 89 10 58 32 151 62 250 11 39 24 90 29 115 23 125 28 150
38 168 6 11 14 44 19 73 9 50 29 136 55 234 6 22 18 58 28 80 16 37 16 95 0
95 -4 0 -17 -44 -30 -97z"/>
<path d="M13370 2537 c0 -8 54 -213 130 -492 20 -77 46 -173 56 -212 10 -40
21 -73 25 -73 12 0 20 49 11 67 -17 34 -44 118 -52 163 -12 60 -30 110 -41
110 -5 0 -9 12 -9 26 0 31 -20 105 -32 119 -4 5 -8 19 -8 32 0 13 -8 49 -19
81 -10 31 -22 78 -25 103 -6 39 -35 101 -36 76z"/>
<path d="M21 2137 c-3 -107 53 -331 119 -473 121 -262 362 -517 620 -656 60
-32 242 -107 272 -112 7 -1 19 -5 26 -9 6 -5 16 -6 21 -2 5 3 12 1 16 -4 3 -5
13 -10 23 -10 9 0 53 -7 97 -15 87 -16 210 -21 185 -7 -8 5 -55 11 -105 15
-91 6 -245 39 -345 74 -314 111 -617 378 -769 679 -72 144 -117 288 -145 468
-9 56 -14 76 -15 52z"/>
<path d="M11791 1604 c24 -25 24 -28 24 -221 0 -148 -3 -197 -12 -201 -7 -2
-13 -10 -13 -18 0 -17 -67 -84 -84 -84 -7 0 -18 -6 -24 -12 -7 -7 -18 -13 -25
-13 -7 -1 -28 -9 -49 -18 -55 -25 -257 -74 -409 -99 -118 -20 -170 -22 -429
-22 -281 0 -301 1 -421 27 -69 14 -135 29 -145 33 -19 6 -19 5 0 -10 10 -8 39
-18 65 -22 25 -3 60 -10 76 -14 98 -27 145 -30 443 -29 242 0 335 4 392 15 41
9 104 19 140 24 36 5 83 14 105 20 22 6 63 16 90 21 28 6 97 29 154 52 81 32
109 49 130 76 26 34 26 35 29 248 3 204 2 215 -18 243 -12 17 -26 30 -32 30
-7 0 -1 -12 13 -26z"/>
<path d="M20175 1565 c21 -59 27 -122 23 -268 -6 -242 -24 -274 -182 -325
-134 -44 -236 -56 -432 -50 -183 6 -293 27 -385 74 -27 13 -54 24 -61 24 -8 0
-43 27 -78 59 -74 68 -95 72 -30 6 36 -37 94 -72 180 -109 8 -4 26 -13 40 -21
14 -8 39 -15 55 -15 17 0 50 -8 75 -16 70 -26 391 -31 490 -9 41 9 96 21 122
26 83 17 136 47 178 100 l40 51 0 221 c0 210 -2 223 -21 247 -17 20 -19 21
-14 5z"/>
<path d="M7057 832 c-23 -90 -74 -205 -132 -297 -55 -89 -184 -228 -273 -296
-70 -53 -233 -140 -299 -160 -24 -6 -43 -16 -43 -21 0 -12 9 -10 74 12 74 26
156 69 156 82 0 5 4 7 9 3 5 -3 16 2 24 10 9 8 20 15 26 15 6 0 11 5 11 10 0
6 7 10 15 10 8 0 32 17 55 38 22 22 41 37 43 35 4 -3 83 87 157 177 25 30 48
57 53 58 4 2 5 8 1 13 -3 5 0 9 5 9 6 0 11 4 11 10 0 5 13 29 29 52 16 24 27
46 25 50 -3 5 0 8 6 8 6 0 9 4 6 9 -3 4 4 26 15 47 29 57 62 175 52 185 -5 5
-16 -21 -26 -59z"/>
<path d="M1914 845 c5 -11 15 -40 23 -65 24 -74 86 -210 95 -210 4 0 8 -7 8
-15 0 -8 9 -23 20 -32 11 -10 20 -23 20 -30 0 -7 3 -13 8 -13 4 0 22 -22 41
-49 18 -27 67 -80 108 -118 42 -37 81 -73 88 -80 7 -7 15 -10 18 -7 3 3 12 -3
19 -15 7 -12 18 -21 25 -21 7 0 13 -5 13 -11 0 -5 4 -8 9 -4 6 3 13 0 18 -7
12 -19 189 -104 253 -122 168 -47 134 -46 1831 -46 880 0 1599 3 1599 8 0 4
-721 7 -1602 7 -1739 0 -1661 -2 -1840 56 -302 98 -554 328 -680 621 -21 50
-42 104 -45 119 -3 16 -12 34 -21 41 -14 11 -15 10 -8 -7z"/>
</g>
</svg>
