<?xml version="1.0" standalone="no"?>
<!DOCTYPE svg PUBLIC "-//W3C//DTD SVG 20010904//EN"
 "http://www.w3.org/TR/2001/REC-SVG-20010904/DTD/svg10.dtd">
<svg version="1.0" xmlns="http://www.w3.org/2000/svg"
 width="700.000000pt" height="700.000000pt" viewBox="0 0 700.000000 700.000000"
 preserveAspectRatio="xMidYMid meet">
<metadata>
Created by potrace 1.11, written by Peter Selinger 2001-2013
</metadata>
<g transform="translate(0.000000,700.000000) scale(0.100000,-0.100000)"
fill="#000000" stroke="none">
<path d="M2950 6074 c-134 -28 -274 -121 -350 -232 -33 -49 -36 -51 -100 -62
-203 -34 -373 -137 -485 -295 -97 -137 -135 -258 -136 -430 0 -309 200 -582
504 -686 48 -17 92 -22 198 -25 149 -4 195 6 335 67 l71 30 66 -29 c121 -55
170 -65 317 -66 152 0 202 11 331 74 l76 37 34 -18 c45 -24 178 -76 215 -84
58 -13 233 -12 301 1 74 14 152 41 221 78 l44 22 61 -31 c123 -63 189 -79 332
-79 133 -1 154 2 238 28 224 71 415 271 472 494 25 97 26 102 26 192 2 326
-219 617 -531 700 -68 18 -88 21 -168 24 -130 5 -232 -18 -358 -81 l-71 -35
-85 41 c-47 23 -109 47 -138 54 -44 10 -59 20 -93 62 -89 108 -188 181 -309
227 -70 26 -118 33 -228 32 -102 0 -188 -22 -286 -71 l-51 -26 -66 32 c-37 18
-88 39 -114 47 -67 21 -196 25 -273 8z m245 -229 c22 -10 69 -38 105 -63 82
-58 105 -58 196 0 96 61 155 81 244 83 169 3 292 -64 392 -216 42 -63 42 -64
151 -90 85 -21 147 -49 222 -103 33 -24 61 -36 82 -36 29 0 111 41 153 76 9 7
47 25 85 40 212 81 472 -5 595 -195 30 -48 67 -132 76 -176 9 -41 5 -171 -6
-220 -34 -150 -154 -292 -297 -350 -168 -68 -340 -46 -502 64 -88 60 -101 60
-216 -10 -117 -70 -184 -91 -285 -91 -127 1 -183 20 -318 105 -90 57 -105 56
-215 -16 -100 -66 -175 -88 -286 -86 -114 1 -172 18 -287 84 -95 53 -109 53
-194 1 -112 -69 -175 -88 -294 -87 -171 1 -323 84 -416 226 -56 86 -81 169
-81 275 -1 272 202 488 476 506 112 8 126 15 170 92 87 149 192 213 340 207
39 -2 88 -11 110 -20z"/>
<path d="M3724 4292 c-155 -100 -221 -121 -369 -117 -55 1 -112 5 -126 9 -59
14 -164 59 -205 86 -51 36 -55 36 -91 7 -15 -13 -53 -35 -83 -49 -152 -71
-322 -77 -478 -16 -48 19 -66 20 -235 14 -100 -3 -193 -8 -207 -11 -89 -21
-123 -32 -189 -62 -224 -101 -380 -289 -451 -544 -19 -71 -20 -100 -20 -799
l0 -725 24 -85 c13 -47 33 -106 44 -132 89 -202 294 -382 502 -441 107 -31
158 -35 383 -36 122 -1 138 -3 143 -18 77 -237 274 -418 494 -451 25 -4 470
-7 990 -7 l945 0 75 24 c207 67 351 211 426 428 l27 78 0 1332 c-1 732 -4
1353 -7 1380 -12 89 -6 85 -104 51 -153 -54 -328 -49 -453 12 -73 35 -149 82
-149 93 0 16 -29 5 -66 -24 -91 -72 -212 -114 -340 -118 -115 -3 -176 14 -286
80 -144 87 -127 84 -194 41z m-1384 -1482 l0 -1102 -187 4 c-208 5 -244 13
-341 75 -97 61 -164 147 -202 257 -21 62 -22 86 -22 876 0 278 3 536 7 574 15
148 127 301 269 367 79 37 121 43 324 47 l152 3 0 -1101z m1470 1040 c376 -7
560 -60 714 -208 116 -112 171 -319 137 -518 -24 -138 -126 -277 -253 -344
l-63 -34 55 -17 c211 -65 336 -189 397 -393 17 -57 23 -226 10 -301 -35 -208
-162 -374 -363 -473 -78 -39 -151 -66 -209 -77 -167 -33 -210 -35 -628 -35
-461 0 -461 0 -501 53 -29 39 -31 127 -30 1252 1 1068 -2 1023 62 1070 38 28
178 33 672 25z"/>
<path d="M3552 3181 c1 -220 4 -311 12 -314 6 -2 89 -3 184 -2 210 2 273 17
338 81 68 67 88 114 91 219 2 89 -11 153 -35 177 -7 7 -12 16 -12 20 0 13 -50
56 -90 77 -63 33 -92 38 -321 46 l-167 6 0 -310z"/>
<path d="M3552 2166 l0 -347 223 1 c234 1 297 10 371 48 55 28 108 82 135 139
27 55 35 185 17 249 -25 83 -90 161 -163 194 -101 45 -108 46 -384 56 l-198 7
-1 -347z"/>
</g>
</svg>
